Coordinates
version=1
nRows=37
nColumns=38
inDegrees=no

Units are S.I. units (second, meters, Newtons, ...)
If the header above contains a line with 'inDegrees', this indicates whether rotational values are in degrees (yes) or radians (no).

endheader
time	pelvis_tilt	pelvis_list	pelvis_rotation	pelvis_tx	pelvis_ty	pelvis_tz	hip_flexion_r	hip_adduction_r	hip_rotation_r	knee_angle_r	ankle_angle_r	subtalar_angle_r	mtp_angle_r	hip_flexion_l	hip_adduction_l	hip_rotation_l	knee_angle_l	ankle_angle_l	subtalar_angle_l	mtp_angle_l	lumbar_extension	lumbar_bending	lumbar_rotation	arm_flex_r	arm_add_r	arm_rot_r	elbow_flex_r	pro_sup_r	wrist_flex_r	wrist_dev_r	arm_flex_l	arm_add_l	arm_rot_l	elbow_flex_l	pro_sup_l	wrist_flex_l	wrist_dev_l
0.77	-3.01953	1.32041	-1.75878	0.765122	-0.208824	1.0018	-0.285139	-0.050711	-0.0576413	0.922715	-0.276844	0	0	0.105271	-0.00421489	-0.440561	0.537578	-0.263243	0	0	-0.533859	0.073794	0.561986	-0.484581	-0.355292	-0.681326	1.97567	0.760148	0	0	0.575908	-0.220936	0.54784	1.07387	0.799198	0	0
0.78	-3.01509	1.32155	-1.76404	0.76396	-0.197795	1.00274	-0.262211	-0.0530605	-0.0384522	0.970578	-0.302739	0	0	0.09824	-0.0036065	-0.448189	0.544489	-0.259183	0	0	-0.533034	0.0726361	0.560382	-0.485921	-0.357018	-0.680538	1.97576	0.760191	0	0	0.575498	-0.222254	0.55081	1.07339	0.796763	0	0
0.79	-3.00912	1.32237	-1.77082	0.762799	-0.187004	1.00359	-0.237875	-0.0550461	-0.021855	1.01948	-0.320858	0	0	0.090152	-0.00200588	-0.455825	0.550606	-0.254	0	0	-0.53289	0.0712144	0.558149	-0.486738	-0.358776	-0.679693	1.97682	0.762281	0	0	0.574704	-0.224351	0.552609	1.07488	0.7948	0	0
0.8	-3.00204	1.32326	-1.7788	0.761665	-0.176399	1.00441	-0.212212	-0.0565098	-0.00688625	1.06711	-0.348354	0	0	0.0822036	-0.000124937	-0.462133	0.558733	-0.243481	0	0	-0.533114	0.0695059	0.556238	-0.489316	-0.362485	-0.67869	1.9793	0.744804	0	0	0.575003	-0.227815	0.557369	1.0779	0.786319	0	0
0.81	-2.99524	1.32127	-1.78617	0.760599	-0.166007	1.00556	-0.190402	-0.0577192	0.0052694	1.1095	-0.356378	0	0	0.0703015	0.00286352	-0.465824	0.564432	-0.235512	0	0	-0.537215	0.0673139	0.554128	-0.490549	-0.363538	-0.679516	1.9828	0.74209	0	0	0.575431	-0.23055	0.559736	1.08171	0.782724	0	0
0.82	-2.99146	1.31814	-1.78986	0.759561	-0.15582	1.00695	-0.170115	-0.0575882	0.0150695	1.14787	-0.351226	0	0	0.0563833	0.00551448	-0.467662	0.567832	-0.229083	0	0	-0.543188	0.0659587	0.551977	-0.491636	-0.36398	-0.681216	1.9869	0.739891	0	0	0.57628	-0.232521	0.561458	1.0853	0.779872	0	0
0.83	-2.99249	1.31474	-1.78713	0.75848	-0.145758	1.00846	-0.151793	-0.0551431	0.0206674	1.18098	-0.331551	0	0	0.0412938	0.00704547	-0.466793	0.568394	-0.223555	0	0	-0.549904	0.0665098	0.549577	-0.493073	-0.363694	-0.683833	1.9915	0.738178	0	0	0.577443	-0.233315	0.562104	1.08819	0.777439	0	0
0.84	-2.9995	1.31264	-1.77711	0.757415	-0.135714	1.0099	-0.132558	-0.0508333	0.0233159	1.21069	-0.307185	0	0	0.0275755	0.00574134	-0.465907	0.568975	-0.218643	0	0	-0.55457	0.0697866	0.545606	-0.492789	-0.363575	-0.684479	1.99441	0.737567	0	0	0.57777	-0.234368	0.561456	1.09019	0.775255	0	0
0.85	-3.00893	1.31213	-1.76362	0.756367	-0.125739	1.01127	-0.110871	-0.0459083	0.0242334	1.23801	-0.285249	0	0	0.0156917	0.00333847	-0.464532	0.569192	-0.213752	0	0	-0.557468	0.0744125	0.541622	-0.492595	-0.362616	-0.685282	1.99656	0.737643	0	0	0.578284	-0.234876	0.561132	1.09143	0.773076	0	0
0.86	-3.01958	1.3122	-1.7483	0.755304	-0.115855	1.0127	-0.0880141	-0.0410293	0.0241891	1.26167	-0.271859	0	0	0.00419813	0.000766422	-0.463614	0.568722	-0.209935	0	0	-0.559677	0.0798012	0.537599	-0.492455	-0.361623	-0.686003	1.99789	0.738451	0	0	0.578848	-0.234641	0.560599	1.09181	0.771247	0	0
0.87	-3.03248	1.31186	-1.73097	0.754298	-0.106039	1.01428	-0.0658354	-0.0358369	0.0245521	1.28028	-0.268854	0	0	-0.00865001	-0.00193391	-0.464016	0.566912	-0.207232	0	0	-0.562346	0.0855394	0.534125	-0.492461	-0.361259	-0.686481	1.99855	0.735733	0	0	0.579535	-0.234017	0.560113	1.09174	0.770468	0	0
0.88	-3.04611	1.31198	-1.71334	0.753418	-0.0961894	1.01589	-0.043693	-0.0300762	0.0253354	1.29445	-0.252886	0	0	-0.0221694	-0.0039844	-0.46405	0.562144	-0.202931	0	0	-0.564151	0.0912258	0.531015	-0.491442	-0.359662	-0.686796	1.99782	0.744354	0	0	0.579852	-0.233449	0.559287	1.09135	0.771691	0	0
0.89	-3.06104	1.31121	-1.69482	0.752621	-0.0864017	1.01759	-0.022855	-0.0237862	0.0270908	1.30435	-0.246345	0	0	-0.0373312	-0.00578595	-0.463745	0.554727	-0.200866	0	0	-0.567107	0.0969621	0.528878	-0.491877	-0.359762	-0.687223	1.99769	0.740796	0	0	0.580806	-0.23296	0.559588	1.09119	0.77226	0	0
0.9	-3.07591	1.31062	-1.67679	0.7519	-0.076648	1.01927	-0.00206272	-0.0170459	0.0303334	1.31045	-0.237745	0	0	-0.0523766	-0.0078311	-0.46253	0.547322	-0.198564	0	0	-0.569723	0.102535	0.526956	-0.491902	-0.359915	-0.687323	1.99707	0.738978	0	0	0.58143	-0.232549	0.559425	1.09127	0.773733	0	0
0.91	-3.08999	1.30977	-1.65965	0.751209	-0.0669066	1.02092	0.0191489	-0.0111826	0.0325171	1.31383	-0.23098	0	0	-0.0677471	-0.00979323	-0.460516	0.539743	-0.196518	0	0	-0.572563	0.107845	0.525232	-0.492159	-0.359809	-0.687807	1.99655	0.738179	0	0	0.581955	-0.232086	0.559173	1.0919	0.774734	0	0
0.92	-3.1032	1.30893	-1.64347	0.750512	-0.057174	1.02249	0.039705	-0.00524696	0.0338854	1.31215	-0.224311	0	0	-0.0833581	-0.0106432	-0.456585	0.528856	-0.194772	0	0	-0.575403	0.113019	0.523722	-0.492808	-0.359424	-0.68871	1.99641	0.737839	0	0	0.582227	-0.231862	0.559024	1.09358	0.774864	0	0
0.93	-3.11576	1.3081	-1.62786	0.749796	-0.0474275	1.02395	0.0591783	0.000716228	0.03448	1.30507	-0.22029	0	0	-0.0986129	-0.0114258	-0.453135	0.518432	-0.193826	0	0	-0.578233	0.118183	0.522447	-0.494063	-0.358581	-0.690287	1.99682	0.738035	0	0	0.582887	-0.232597	0.560209	1.09575	0.777675	0	0
0.94	-3.12744	1.30743	-1.61317	0.7491	-0.0376789	1.0253	0.0781123	0.00647516	0.0347008	1.29419	-0.216233	0	0	-0.113846	-0.0117184	-0.448612	0.507926	-0.192369	0	0	-0.581005	0.123104	0.521534	-0.49582	-0.357064	-0.692592	1.99786	0.738465	0	0	0.583482	-0.233107	0.561349	1.09829	0.780638	0	0
0.95	-3.13768	1.30701	-1.59994	0.748479	-0.0279215	1.02649	0.097141	0.0113683	0.0342005	1.28022	-0.212074	0	0	-0.129032	-0.0115852	-0.443838	0.497252	-0.190531	0	0	-0.58339	0.127561	0.520948	-0.49795	-0.354739	-0.695292	1.9993	0.739426	0	0	0.584251	-0.233004	0.562437	1.10043	0.782805	0	0
0.96	3.1362	1.30693	-1.5877	0.74797	-0.0181434	1.02753	0.116189	0.0154089	0.0323105	1.26369	-0.206916	0	0	-0.143932	-0.0114947	-0.439548	0.486702	-0.188384	0	0	-0.585387	0.13164	0.520766	-0.500379	-0.351371	-0.698378	2.00114	0.741179	0	0	0.585321	-0.233216	0.564229	1.10322	0.784467	0	0
0.97	3.12796	1.30777	-1.5766	0.747577	-0.00834277	1.02836	0.135554	0.0184244	0.0287559	1.24444	-0.197677	0	0	-0.158054	-0.0111783	-0.43453	0.475417	-0.185396	0	0	-0.586449	0.135211	0.521168	-0.501974	-0.34455	-0.703911	2.00312	0.760067	0	0	0.586581	-0.233107	0.566104	1.10601	0.787425	0	0
0.98	3.1195	1.30934	-1.56556	0.747305	0.00146629	1.02895	0.155336	0.0202733	0.0231908	1.22298	-0.191109	0	0	-0.17063	-0.0120633	-0.432103	0.466756	-0.18259	0	0	-0.586649	0.138534	0.52206	-0.505749	-0.340463	-0.709331	2.00606	0.753394	0	0	0.588287	-0.233146	0.5691	1.10881	0.786504	0	0
0.99	3.11112	1.3115	-1.55473	0.747145	0.0113408	1.02933	0.17522	0.0207749	0.0155106	1.19945	-0.190404	0	0	-0.182024	-0.0139623	-0.432688	0.460261	-0.181223	0	0	-0.585733	0.141691	0.521806	-0.508383	-0.336927	-0.712143	2.00803	0.753169	0	0	0.588829	-0.234078	0.57017	1.1121	0.788353	0	0
1	3.1056	1.31342	-1.54629	0.747004	0.0212897	1.02961	0.194232	0.0183793	0.00406803	1.17393	-0.186987	0	0	-0.194488	-0.0144042	-0.430794	0.451151	-0.178657	0	0	-0.585056	0.144111	0.522269	-0.512049	-0.331552	-0.716516	2.01077	0.752657	0	0	0.590744	-0.23458	0.573465	1.11459	0.789809	0	0
1.01	3.10318	1.31566	-1.54072	0.746857	0.0313515	1.02975	0.213362	0.0122825	-0.0128858	1.14751	-0.184918	0	0	-0.206687	-0.0140995	-0.429524	0.442187	-0.176328	0	0	-0.582236	0.146651	0.518595	-0.511616	-0.327871	-0.716056	2.01081	0.754187	0	0	0.59036	-0.23701	0.574123	1.11691	0.790613	0	0
1.02	3.10271	1.31786	-1.53662	0.746657	0.0414989	1.02973	0.231868	0.00239346	-0.0368796	1.12006	-0.18466	0	0	-0.219011	-0.0132558	-0.428395	0.43276	-0.174125	0	0	-0.579017	0.14904	0.514002	-0.511036	-0.324501	-0.715118	2.01063	0.756743	0	0	0.589456	-0.239516	0.57409	1.1196	0.791149	0	0
1.03	3.10232	1.32019	-1.53253	0.746531	0.0516226	1.02962	0.248093	-0.00745057	-0.0615378	1.08867	-0.185302	0	0	-0.231054	-0.0124919	-0.426945	0.423275	-0.171998	0	0	-0.575653	0.151328	0.50952	-0.510385	-0.321106	-0.714209	2.01032	0.7596	0	0	0.588906	-0.241695	0.574078	1.12169	0.791863	0	0
1.04	3.10091	1.32334	-1.52801	0.746582	0.0616789	1.02938	0.262278	-0.0140203	-0.0810823	1.05222	-0.18555	0	0	-0.241852	-0.0124193	-0.425636	0.415915	-0.169534	0	0	-0.57173	0.153299	0.505966	-0.509691	-0.317578	-0.713482	2.0098	0.762481	0	0	0.588606	-0.243338	0.573877	1.12319	0.792932	0	0
1.05	3.09903	1.32738	-1.52374	0.746767	0.0717423	1.02895	0.275474	-0.0184793	-0.0973858	1.01251	-0.184382	0	0	-0.251298	-0.0124097	-0.424643	0.409097	-0.167006	0	0	-0.56703	0.154866	0.503447	-0.509443	-0.314033	-0.71308	2.0093	0.765378	0	0	0.588347	-0.244479	0.573542	1.12443	0.793591	0	0
1.06	3.09639	1.33186	-1.51924	0.747009	0.0818327	1.02837	0.287441	-0.0217	-0.112327	0.969805	-0.181466	0	0	-0.26012	-0.0123818	-0.423208	0.402463	-0.164483	0	0	-0.561704	0.156615	0.501161	-0.509012	-0.311261	-0.712184	2.00849	0.768329	0	0	0.587583	-0.245458	0.572731	1.1254	0.7943	0	0
1.07	3.09449	1.33697	-1.51573	0.747335	0.0919489	1.02763	0.298573	-0.0244078	-0.126985	0.924847	-0.175422	0	0	-0.268428	-0.0117574	-0.419221	0.395169	-0.160701	0	0	-0.555638	0.157931	0.498927	-0.507272	-0.30699	-0.711662	2.00683	0.788099	0	0	0.586014	-0.245762	0.569995	1.12611	0.798549	0	0
1.08	3.09094	1.34297	-1.51075	0.747606	0.102112	1.02655	0.309766	-0.0265179	-0.142272	0.879489	-0.167085	0	0	-0.27563	-0.011407	-0.41484	0.388558	-0.1558	0	0	-0.548641	0.159677	0.498396	-0.509248	-0.305431	-0.712038	2.00676	0.782323	0	0	0.586075	-0.245789	0.570988	1.12615	0.797385	0	0
1.09	3.08958	1.34755	-1.50926	0.74817	0.112358	1.02561	0.318047	-0.0279986	-0.157215	0.832819	-0.159993	0	0	-0.284503	-0.0107525	-0.412188	0.382178	-0.152913	0	0	-0.54306	0.160174	0.497993	-0.50934	-0.30367	-0.711296	2.00562	0.783334	0	0	0.585545	-0.246002	0.570387	1.12607	0.797679	0	0
1.1	3.08925	1.35191	-1.5092	0.748794	0.122682	1.02455	0.325057	-0.0293676	-0.173604	0.785905	-0.152849	0	0	-0.293605	-0.00999274	-0.410403	0.376437	-0.150088	0	0	-0.537829	0.160307	0.498431	-0.510025	-0.302007	-0.711206	2.00484	0.783896	0	0	0.585076	-0.245858	0.570057	1.1261	0.797828	0	0
1.11	3.08984	1.35628	-1.51024	0.749405	0.133071	1.02335	0.330981	-0.0310336	-0.192387	0.739018	-0.146423	0	0	-0.302586	-0.00914851	-0.409111	0.371359	-0.147281	0	0	-0.532666	0.160332	0.499538	-0.511412	-0.300722	-0.711834	2.00437	0.78429	0	0	0.58481	-0.245279	0.570257	1.12595	0.798087	0	0
1.12	3.09245	1.36108	-1.5137	0.750092	0.143522	1.02197	0.336097	-0.0323816	-0.211372	0.691886	-0.14053	0	0	-0.311104	-0.00783974	-0.407781	0.366571	-0.14412	0	0	-0.527138	0.15976	0.501488	-0.5133	-0.299283	-0.7132	2.00401	0.784689	0	0	0.584594	-0.244086	0.570412	1.1255	0.798248	0	0
1.13	3.09713	1.36698	-1.51977	0.750907	0.154118	1.02034	0.342052	-0.0336355	-0.230539	0.647666	-0.136395	0	0	-0.317974	-0.00651755	-0.40835	0.363801	-0.141491	0	0	-0.5202	0.158494	0.503739	-0.515456	-0.298221	-0.714155	2.00336	0.783002	0	0	0.583695	-0.242938	0.570166	1.12529	0.798106	0	0
